<?xml version="1.0" encoding="UTF-8" standalone="no"?><!DOCTYPE svg PUBLIC "-//W3C//DTD SVG 1.1//EN" "http://www.w3.org/Graphics/SVG/1.1/DTD/svg11.dtd"><svg width="100%" height="100%" viewBox="0 0 4555 1275" version="1.1" xmlns="http://www.w3.org/2000/svg" xmlns:xlink="http://www.w3.org/1999/xlink" xml:space="preserve" xmlns:serif="http://www.serif.com/" style="fill-rule:evenodd;clip-rule:evenodd;stroke-linejoin:round;stroke-miterlimit:2;"><rect id="camgator" x="0" y="0" width="4554.33" height="1274.41" style="fill:none;"/><clipPath id="_clip1"><rect id="camgator1" serif:id="camgator" x="0" y="0" width="4554.33" height="1274.41"/></clipPath><g clip-path="url(#_clip1)"><g><path d="M3798.28,693.687l-54.197,-14.523c-21.545,-5.774 -34.452,-28.114 -28.683,-49.645l94.402,-352.334c5.768,-21.531 28.116,-34.425 49.66,-28.651l137.099,36.738c20.283,-36.524 40.564,-73.048 79.736,-62.552l156.685,41.987c39.174,10.497 38.475,52.269 37.776,94.041l137.101,36.738c21.546,5.773 34.451,28.114 28.683,49.645l-61.25,228.607l-181.973,0c26.548,-22.771 46.741,-53.505 56.475,-89.834c25.706,-95.944 -31.276,-194.574 -127.278,-220.299c-96,-25.725 -194.661,31.196 -220.367,127.141c-18.48,68.97 5.771,139.327 56.528,182.992l-160.397,0l-0,19.949Zm150.384,-190.476c18.828,-70.268 91.087,-111.958 161.397,-93.118c70.31,18.841 112.044,91.078 93.217,161.346c-18.827,70.269 -91.086,111.958 -161.396,93.118c-70.31,-18.841 -112.044,-91.077 -93.218,-161.346Zm427.729,9.72l10.487,-39.148l-78.339,-20.994l-10.492,39.149l78.344,20.993Z" style="fill-rule:nonzero;"/><g transform="matrix(1,0,0,1,-351.357,-6978.42)"><g transform="matrix(416.667,0,0,416.667,1331.19,8213.23)"><path d="M0.276,0.006c-0.037,0 -0.072,-0.007 -0.104,-0.021c-0.031,-0.014 -0.056,-0.037 -0.075,-0.068c-0.019,-0.031 -0.028,-0.073 -0.028,-0.125l-0,-0.31c-0,-0.051 0.009,-0.093 0.028,-0.124c0.019,-0.031 0.045,-0.054 0.077,-0.068c0.031,-0.014 0.066,-0.021 0.104,-0.021c0.044,0 0.081,0.008 0.112,0.023c0.031,0.015 0.054,0.036 0.071,0.061c0.016,0.025 0.024,0.053 0.024,0.083c0,0.016 -0.003,0.027 -0.009,0.032c-0.005,0.005 -0.013,0.008 -0.024,0.008c-0.012,0 -0.021,-0.002 -0.026,-0.007c-0.005,-0.006 -0.007,-0.011 -0.007,-0.018c-0.001,-0.011 -0.003,-0.023 -0.006,-0.037c-0.004,-0.014 -0.011,-0.027 -0.02,-0.04c-0.01,-0.013 -0.024,-0.023 -0.042,-0.031c-0.019,-0.009 -0.043,-0.013 -0.072,-0.013c-0.047,0 -0.082,0.012 -0.107,0.037c-0.025,0.025 -0.037,0.063 -0.037,0.115l0,0.31c0,0.053 0.013,0.091 0.038,0.116c0.025,0.025 0.061,0.037 0.109,0.037c0.03,0 0.054,-0.004 0.071,-0.012c0.017,-0.009 0.031,-0.019 0.04,-0.031c0.009,-0.013 0.015,-0.026 0.018,-0.04c0.003,-0.015 0.006,-0.028 0.008,-0.04c0.001,-0.009 0.004,-0.015 0.009,-0.019c0.005,-0.005 0.013,-0.007 0.023,-0.007c0.011,0 0.02,0.003 0.026,0.009c0.005,0.005 0.008,0.016 0.008,0.032c0,0.03 -0.008,0.058 -0.025,0.084c-0.017,0.025 -0.041,0.046 -0.072,0.062c-0.031,0.015 -0.068,0.023 -0.112,0.023Z" style="fill:#231f20;fill-rule:nonzero;"/></g><g transform="matrix(416.667,0,0,416.667,1633.27,8213.23)"><path d="M0.058,-0c-0.005,-0 -0.011,-0.001 -0.017,-0.004c-0.006,-0.002 -0.011,-0.005 -0.015,-0.01c-0.004,-0.004 -0.006,-0.009 -0.006,-0.014c-0,-0.003 0,-0.005 0.001,-0.007l0.209,-0.679c0.003,-0.008 0.008,-0.014 0.015,-0.017c0.007,-0.004 0.015,-0.006 0.024,-0.006c0.009,0 0.018,0.002 0.025,0.006c0.008,0.004 0.013,0.01 0.015,0.017l0.208,0.679c0.001,0.002 0.001,0.004 0.001,0.006c-0,0.005 -0.002,0.01 -0.006,0.015c-0.004,0.004 -0.009,0.007 -0.015,0.01c-0.006,0.003 -0.012,0.004 -0.019,0.004c-0.005,0 -0.01,-0.001 -0.015,-0.004c-0.005,-0.003 -0.008,-0.007 -0.009,-0.013l-0.047,-0.154l-0.276,0l-0.046,0.154c-0.002,0.006 -0.005,0.01 -0.01,0.013c-0.005,0.003 -0.01,0.004 -0.017,0.004Zm0.089,-0.228l0.243,0l-0.121,-0.403l-0.122,0.403Z" style="fill:#231f20;fill-rule:nonzero;"/></g><g transform="matrix(416.667,0,0,416.667,1940.77,8213.23)"><path d="M0.109,-0c-0.009,-0 -0.016,-0.002 -0.023,-0.007c-0.007,-0.004 -0.01,-0.01 -0.01,-0.019l0,-0.673c0,-0.012 0.003,-0.02 0.01,-0.025c0.007,-0.005 0.014,-0.007 0.023,-0.007c0.008,0 0.015,0.002 0.022,0.007c0.006,0.004 0.012,0.01 0.017,0.017c0.005,0.007 0.01,0.014 0.014,0.022l0.172,0.332l0.172,-0.332c0.005,-0.008 0.009,-0.015 0.014,-0.022c0.005,-0.007 0.011,-0.013 0.018,-0.017c0.007,-0.005 0.014,-0.007 0.021,-0.007c0.009,0 0.017,0.002 0.023,0.007c0.007,0.005 0.01,0.013 0.01,0.025l-0,0.673c-0,0.009 -0.003,0.015 -0.01,0.02c-0.007,0.004 -0.014,0.006 -0.023,0.006c-0.008,0 -0.016,-0.002 -0.023,-0.006c-0.007,-0.005 -0.01,-0.011 -0.01,-0.02l0,-0.562l-0.166,0.314c-0.004,0.007 -0.008,0.013 -0.013,0.016c-0.005,0.003 -0.009,0.005 -0.014,0.005c-0.004,0 -0.008,-0.001 -0.013,-0.004c-0.005,-0.003 -0.009,-0.009 -0.013,-0.017l-0.165,-0.317l0,0.565c0,0.009 -0.003,0.015 -0.01,0.02c-0.007,0.004 -0.015,0.006 -0.023,0.006Z" style="fill:#231f20;fill-rule:nonzero;"/></g><g transform="matrix(416.667,0,0,416.667,2385.77,8213.23)"><path d="M0.287,0.006c-0.044,0 -0.084,-0.008 -0.119,-0.023c-0.035,-0.014 -0.063,-0.039 -0.084,-0.073c-0.021,-0.033 -0.031,-0.078 -0.031,-0.133l-0,-0.279c-0,-0.055 0.01,-0.1 0.031,-0.134c0.021,-0.033 0.048,-0.058 0.083,-0.073c0.035,-0.015 0.074,-0.022 0.116,-0.022c0.047,0 0.088,0.008 0.124,0.023c0.035,0.015 0.063,0.037 0.084,0.066c0.021,0.029 0.031,0.063 0.031,0.103c0,0.025 -0.005,0.041 -0.016,0.049c-0.011,0.009 -0.027,0.013 -0.049,0.013c-0.017,-0 -0.032,-0.003 -0.045,-0.009c-0.013,-0.006 -0.019,-0.017 -0.02,-0.032c-0.001,-0.016 -0.004,-0.032 -0.01,-0.047c-0.005,-0.015 -0.015,-0.027 -0.03,-0.037c-0.014,-0.01 -0.036,-0.015 -0.065,-0.015c-0.033,0 -0.058,0.009 -0.077,0.028c-0.019,0.019 -0.028,0.048 -0.028,0.087l0,0.279c0,0.039 0.009,0.067 0.028,0.086c0.019,0.019 0.044,0.029 0.077,0.029c0.033,-0 0.058,-0.01 0.077,-0.029c0.019,-0.019 0.028,-0.047 0.028,-0.086l0,-0.059l-0.081,-0c-0.013,-0 -0.023,-0.005 -0.029,-0.016c-0.007,-0.011 -0.011,-0.022 -0.011,-0.035c0,-0.013 0.004,-0.024 0.011,-0.035c0.007,-0.011 0.016,-0.016 0.029,-0.016l0.17,0c0.013,-0 0.024,0.004 0.031,0.013c0.007,0.008 0.01,0.018 0.01,0.029l0,0.119c0,0.055 -0.01,0.1 -0.031,0.133c-0.021,0.034 -0.049,0.058 -0.084,0.073c-0.036,0.015 -0.076,0.023 -0.12,0.023Z" style="fill:#231f20;fill-rule:nonzero;"/></g><g transform="matrix(416.667,0,0,416.667,2704.11,8213.23)"><path d="M0.091,-0c-0.012,-0 -0.024,-0.002 -0.037,-0.007c-0.013,-0.005 -0.023,-0.011 -0.032,-0.019c-0.009,-0.008 -0.013,-0.017 -0.013,-0.028c0,-0.002 0,-0.005 0.001,-0.01l0.193,-0.629c0.005,-0.015 0.015,-0.026 0.032,-0.033c0.016,-0.007 0.033,-0.011 0.052,-0.011c0.019,0 0.037,0.004 0.053,0.011c0.016,0.007 0.026,0.018 0.031,0.033l0.193,0.629c0.001,0.005 0.002,0.008 0.002,0.01c0,0.01 -0.005,0.019 -0.014,0.028c-0.009,0.008 -0.019,0.014 -0.032,0.019c-0.013,0.005 -0.025,0.007 -0.037,0.007c-0.011,0 -0.02,-0.002 -0.028,-0.005c-0.007,-0.004 -0.012,-0.011 -0.015,-0.021l-0.038,-0.133l-0.23,0l-0.037,0.133c-0.003,0.01 -0.008,0.017 -0.016,0.021c-0.008,0.003 -0.017,0.005 -0.028,0.005Zm0.109,-0.261l0.174,0l-0.087,-0.307l-0.087,0.307Z" style="fill:#231f20;fill-rule:nonzero;"/></g><g transform="matrix(416.667,0,0,416.667,3001.19,8213.23)"><path d="M0.262,-0c-0.017,-0 -0.032,-0.004 -0.045,-0.011c-0.013,-0.007 -0.02,-0.017 -0.02,-0.03l-0,-0.573l-0.147,0c-0.013,0 -0.023,-0.006 -0.03,-0.018c-0.007,-0.012 -0.011,-0.026 -0.011,-0.041c-0,-0.014 0.003,-0.027 0.01,-0.039c0.007,-0.013 0.017,-0.019 0.031,-0.019l0.423,0c0.015,0 0.025,0.006 0.032,0.019c0.006,0.012 0.009,0.025 0.009,0.039c0,0.015 -0.003,0.029 -0.01,0.041c-0.008,0.012 -0.018,0.018 -0.031,0.018l-0.146,0l0,0.573c0,0.013 -0.007,0.024 -0.02,0.031c-0.014,0.007 -0.029,0.01 -0.045,0.01Z" style="fill:#231f20;fill-rule:nonzero;"/></g><g transform="matrix(416.667,0,0,416.667,3296.61,8213.23)"><path d="M0.287,0.006c-0.044,0 -0.084,-0.008 -0.119,-0.023c-0.035,-0.014 -0.063,-0.039 -0.084,-0.073c-0.021,-0.033 -0.031,-0.078 -0.031,-0.133l-0,-0.279c-0,-0.055 0.01,-0.1 0.031,-0.134c0.021,-0.033 0.048,-0.058 0.083,-0.073c0.035,-0.015 0.075,-0.022 0.12,-0.022c0.044,0 0.084,0.007 0.119,0.022c0.036,0.015 0.064,0.04 0.085,0.073c0.021,0.034 0.031,0.079 0.031,0.134l0,0.279c0,0.055 -0.01,0.1 -0.031,0.133c-0.021,0.034 -0.049,0.058 -0.084,0.073c-0.036,0.015 -0.076,0.023 -0.12,0.023Zm0,-0.114c0.033,-0 0.058,-0.009 0.077,-0.028c0.019,-0.019 0.028,-0.048 0.028,-0.087l0,-0.279c0,-0.039 -0.009,-0.068 -0.028,-0.087c-0.019,-0.019 -0.044,-0.028 -0.077,-0.028c-0.033,0 -0.058,0.009 -0.077,0.028c-0.019,0.019 -0.028,0.048 -0.028,0.087l0,0.279c0,0.039 0.009,0.068 0.028,0.087c0.019,0.019 0.044,0.028 0.077,0.028Z" style="fill:#231f20;fill-rule:nonzero;"/></g><g transform="matrix(416.667,0,0,416.667,3619.11,8213.23)"><path d="M0.461,0.005c-0.009,0 -0.017,-0.003 -0.026,-0.008c-0.008,-0.005 -0.014,-0.013 -0.019,-0.023l-0.142,-0.276l-0.084,0l0,0.261c0,0.013 -0.007,0.024 -0.02,0.031c-0.013,0.007 -0.028,0.01 -0.045,0.01c-0.016,0 -0.031,-0.003 -0.044,-0.01c-0.014,-0.007 -0.021,-0.018 -0.021,-0.031l0,-0.65c0,-0.011 0.004,-0.02 0.012,-0.028c0.007,-0.008 0.017,-0.012 0.03,-0.012l0.198,0c0.044,0 0.084,0.006 0.12,0.019c0.035,0.013 0.064,0.034 0.085,0.065c0.021,0.03 0.032,0.072 0.032,0.125c0,0.039 -0.006,0.071 -0.017,0.099c-0.011,0.027 -0.027,0.048 -0.046,0.065c-0.02,0.016 -0.043,0.028 -0.068,0.036l0.132,0.243c0.001,0.003 0.002,0.006 0.003,0.009c0.001,0.003 0.001,0.005 0.001,0.007c0,0.011 -0.004,0.021 -0.012,0.032c-0.008,0.011 -0.018,0.019 -0.03,0.026c-0.013,0.007 -0.026,0.01 -0.039,0.01Zm-0.271,-0.409l0.11,0c0.033,0 0.059,-0.008 0.078,-0.024c0.019,-0.016 0.029,-0.043 0.029,-0.082c0,-0.04 -0.01,-0.068 -0.029,-0.083c-0.019,-0.016 -0.045,-0.024 -0.078,-0.024l-0.11,0l0,0.213Z" style="fill:#231f20;fill-rule:nonzero;"/></g></g><path d="M2283.82,834.586c-0,-12.197 -9.903,-22.1 -22.101,-22.1l-2239.62,0c-12.197,0 -22.1,9.903 -22.1,22.1c-0,12.198 9.903,22.101 22.1,22.101l2239.62,-0c12.198,-0 22.101,-9.903 22.101,-22.101Z" style="fill:#54c9ea;"/><path d="M3714.02,755.949c0,-12.197 -9.902,-22.1 -22.1,-22.1l-1956.26,-0c-12.197,-0 -22.1,9.903 -22.1,22.1c-0,12.197 9.903,22.1 22.1,22.1l1956.26,-0c12.198,-0 22.1,-9.903 22.1,-22.1Z" style="fill:#54c9ea;"/><path d="M2123.87,213.174c140.626,110.627 317.956,176.645 510.584,176.645c188.064,0 361.548,-62.927 500.528,-168.858c2.694,-2.053 5.566,-3.942 8.596,-5.676c27.713,-20.403 60.454,-32.199 95.517,-32.199c99.648,0 180.55,95.276 180.55,212.629c-0,48.454 -13.792,93.144 -37.001,128.918c-32.655,66.734 -88.606,119.901 -157.472,148.691l-1878.73,0l-183.397,-0.425c-37.486,-0 -12.417,-52.959 -1.771,-78.71c105.065,-254.145 333.222,-444.666 609.977,-497.064c32.308,-57.919 94.194,-97.125 165.164,-97.125c104.307,-0 188.991,84.69 188.991,189.003c-0,8.189 -0.522,16.256 -1.534,24.171Zm149.457,355.049c-28.762,-0.365 -54.544,-1.983 -78.216,-4.73c13.265,29.5 29.466,59.714 40.183,59.714c10.144,-0 25.203,-27.071 38.033,-54.984Zm777.786,-58.112c-38.575,-1.314 -80.363,-1.841 -124.377,-1.076c4.478,12.142 42.694,114.172 62.388,114.172c19.201,-0 56.01,-96.992 61.989,-113.096Zm-898.393,46.885c-35.73,-6.892 -67.088,-16.726 -98.147,-28.922c13.101,33.079 39.724,95.133 55.083,95.133c11.506,-0 29.335,-34.83 43.064,-66.211Zm645.279,-41.993c-37.844,2.903 -76.518,6.938 -115.516,12.361c12.999,32.893 39.895,95.843 55.364,95.843c17.766,-0 50.607,-83.036 60.152,-108.204Zm127.868,-5.953c-39.358,0.699 -80.487,2.432 -122.682,5.561c9.349,24.686 42.441,108.596 60.3,108.596c19.686,-0 57.878,-101.945 62.382,-114.157Zm-259.196,20.588c-3.628,0.538 -7.259,1.09 -10.891,1.653c-32.492,5.042 -63.055,9.528 -91.86,13.483c14.11,33.746 35.256,78.433 48.289,78.433c15.12,-0 41.156,-60.139 54.462,-93.569Zm627.69,1.256c-10.954,-1.676 -51.804,-7.619 -112.986,-12.936c10.777,28.118 41.902,105.249 59.025,105.249c14.932,-0 40.512,-58.656 53.961,-92.313Zm-120.334,-13.563c-34.816,-2.918 -75.771,-5.583 -121.233,-7.162c6.046,16.277 42.789,113.038 61.968,113.038c17.252,-0 48.717,-78.298 59.265,-105.876Zm-11.395,-210.179l140.587,-0c0,-38.799 -31.497,-70.299 -70.293,-70.299c-38.796,0 -70.294,31.5 -70.294,70.299Zm-629.504,241.734c-31.714,4.111 -61.181,7.529 -88.663,10.292c13.591,30.792 30.865,64.029 42.106,64.029c12.51,-0 32.494,-41.173 46.557,-74.321Zm-131.843,14.23c-28.39,2.303 -54.477,3.813 -78.627,4.581c12.883,28.098 28.067,55.51 38.274,55.51c10.763,-0 27.057,-30.472 40.353,-60.091Zm-325.815,-300.149c7.016,-13.155 12.221,-27.421 15.279,-42.463l-308.672,-0c14.609,71.855 78.2,126.002 154.336,126.002c32.236,-0 62.222,-9.706 87.194,-26.353c-0.478,-0.009 -0.957,-0.022 -1.436,-0.037c-47.755,-1.545 -85.504,-34.362 -84.246,-73.238c21.317,10.419 52.385,19.323 85.955,20.409c18.186,0.589 35.787,-1.16 51.59,-4.32Z"/><path d="M4554.33,677.311c-0,-12.197 -9.903,-22.1 -22.1,-22.1l-3937.37,0c-12.197,0 -22.1,9.903 -22.1,22.1c0,12.198 9.903,22.1 22.1,22.1l3937.37,0c12.197,0 22.1,-9.902 22.1,-22.1Z" style="fill:#54c9ea;"/></g></g></svg>