<?xml version="1.0" encoding="UTF-8" standalone="no"?><!DOCTYPE svg PUBLIC "-//W3C//DTD SVG 1.1//EN" "http://www.w3.org/Graphics/SVG/1.1/DTD/svg11.dtd"><svg width="100%" height="100%" viewBox="0 0 4555 1275" version="1.1" xmlns="http://www.w3.org/2000/svg" xmlns:xlink="http://www.w3.org/1999/xlink" xml:space="preserve" xmlns:serif="http://www.serif.com/" style="fill-rule:evenodd;clip-rule:evenodd;stroke-linejoin:round;stroke-miterlimit:2;"><rect id="gastrogator" x="0" y="0" width="4554.33" height="1274.41" style="fill:none;"/><clipPath id="_clip1"><rect id="gastrogator1" serif:id="gastrogator" x="0" y="0" width="4554.33" height="1274.41"/></clipPath><g clip-path="url(#_clip1)"><g><path d="M4322.32,263.549c1.162,24.24 -2.368,49.101 -11.182,73.318c-3.684,10.121 -8.148,19.733 -13.299,28.796c-6.575,11.57 -21.307,15.626 -32.878,9.05c-11.57,-6.575 -15.625,-21.307 -9.05,-32.878c3.839,-6.754 7.164,-13.919 9.909,-21.462c10.224,-28.09 10.896,-57.345 3.69,-84.149c-0.064,-0.227 -0.126,-0.455 -0.195,-0.715c-11.616,-42.377 -42.9,-78.685 -87.294,-94.843c-44.448,-16.178 -91.812,-8.434 -127.926,16.605c-0.194,0.137 -0.389,0.273 -0.616,0.429c-22.726,15.926 -40.962,38.732 -51.165,66.765c-2.732,7.506 -4.784,15.095 -6.184,22.699c-2.411,13.088 -14.994,21.757 -28.082,19.346c-13.089,-2.411 -21.757,-14.994 -19.346,-28.083c1.879,-10.203 4.629,-20.385 8.295,-30.457c8.821,-24.235 22.111,-45.564 38.601,-63.395c-70.334,-20.583 -145.604,16.816 -171.021,86.648c-19.112,52.51 -4.836,109.09 31.946,146.453c6.695,6.8 8.749,16.909 5.24,25.784c-0.249,0.629 -0.491,1.264 -0.724,1.904c0,0 -45.926,126.182 -45.926,126.182l348.995,127.023c3.8,1.383 6.059,5.295 5.356,9.278c-0.702,3.983 -4.162,6.886 -8.206,6.886l-91.6,0c-0.972,0 -1.937,-0.17 -2.85,-0.502c-0,-0 -268.11,-97.584 -268.11,-97.584l-3.668,10.076c-9.599,26.373 -2.885,54.734 14.971,74.015c2.251,2.43 2.849,5.963 1.523,8.998c-1.326,3.036 -4.324,4.997 -7.637,4.997l-38.743,0c-3.016,0 -5.796,-1.629 -7.27,-4.26c-16.569,-29.575 -20.654,-65.921 -8.161,-100.245c-0,0 61.975,-170.275 61.976,-170.275c-41.544,-49.866 -56.209,-119.891 -32.429,-185.225c35.57,-97.727 143.79,-148.192 241.518,-112.622c6.248,2.274 12.302,4.846 18.152,7.693c46.73,-27.298 104.806,-34.389 159.586,-14.451c54.747,19.927 94.664,62.651 112.929,113.56c6.079,1.547 12.138,3.41 18.157,5.601c97.727,35.57 148.192,143.791 112.622,241.519c-23.822,65.45 -80.227,109.707 -144.245,121.106l-33.527,92.116c-1.199,3.292 -4.328,5.483 -7.831,5.483l-33.585,0c-2.719,0 -5.267,-1.326 -6.826,-3.553c-1.559,-2.227 -1.934,-5.075 -1.004,-7.63l41.549,-114.157c0.221,-0.607 0.433,-1.214 0.637,-1.823c3.03,-9.054 11.118,-15.468 20.625,-16.355c52.303,-4.883 99.743,-39.077 118.889,-91.682c25.325,-69.579 -7.961,-146.306 -74.586,-175.984Zm-199.499,110.215l-34.216,94.006c-4.53,12.446 -18.312,18.873 -30.758,14.343c-12.446,-4.53 -18.873,-18.312 -14.343,-30.758l34.216,-94.007c4.53,-12.446 18.312,-18.873 30.758,-14.343c12.446,4.53 18.873,18.313 14.343,30.759Zm-164.527,-25.728l17.372,98.52c2.299,13.044 -6.423,25.501 -19.467,27.801c-13.043,2.3 -25.5,-6.423 -27.8,-19.466l-17.372,-98.52c-2.3,-13.044 6.423,-25.501 19.466,-27.801c13.044,-2.3 25.501,6.423 27.801,19.466Zm295.745,133.181l-76.635,64.304c-10.146,8.514 -25.295,7.188 -33.809,-2.958c-8.513,-10.146 -7.188,-25.295 2.958,-33.809l76.635,-64.304c10.146,-8.514 25.296,-7.188 33.809,2.958c8.514,10.146 7.188,25.295 -2.958,33.809Z"/><g transform="matrix(1,0,0,1,-728.033,-6978.55)"><g transform="matrix(416.667,0,0,416.667,1331.19,8213.23)"><path d="M0.276,0.006c-0.039,0 -0.074,-0.007 -0.105,-0.021c-0.031,-0.014 -0.056,-0.037 -0.075,-0.068c-0.018,-0.031 -0.027,-0.073 -0.027,-0.125l-0,-0.31c-0,-0.051 0.009,-0.093 0.027,-0.124c0.019,-0.031 0.043,-0.054 0.074,-0.068c0.031,-0.014 0.066,-0.021 0.105,-0.021c0.043,0 0.08,0.007 0.111,0.022c0.031,0.015 0.056,0.036 0.073,0.062c0.017,0.026 0.026,0.056 0.026,0.089c0,0.013 -0.003,0.021 -0.009,0.027c-0.006,0.005 -0.014,0.007 -0.024,0.007c-0.009,0 -0.016,-0.002 -0.023,-0.006c-0.006,-0.004 -0.009,-0.01 -0.01,-0.019c-0.003,-0.026 -0.011,-0.048 -0.022,-0.066c-0.011,-0.018 -0.027,-0.032 -0.047,-0.041c-0.02,-0.009 -0.045,-0.014 -0.074,-0.014c-0.045,0 -0.079,0.012 -0.104,0.037c-0.025,0.025 -0.037,0.063 -0.037,0.115l0,0.31c0,0.052 0.012,0.091 0.037,0.116c0.025,0.025 0.059,0.037 0.104,0.037c0.045,0 0.08,-0.012 0.105,-0.037c0.025,-0.025 0.038,-0.064 0.038,-0.116l0,-0.119l-0.134,0c-0.008,0 -0.014,-0.003 -0.018,-0.009c-0.005,-0.006 -0.007,-0.013 -0.007,-0.02c0,-0.007 0.002,-0.013 0.007,-0.019c0.004,-0.006 0.01,-0.009 0.018,-0.009l0.175,0c0.008,0 0.014,0.003 0.019,0.008c0.004,0.005 0.006,0.011 0.006,0.018l0,0.15c0,0.052 -0.009,0.094 -0.028,0.125c-0.019,0.031 -0.044,0.054 -0.075,0.068c-0.031,0.014 -0.067,0.021 -0.106,0.021Z" style="fill:#231f20;fill-rule:nonzero;"/></g><g transform="matrix(416.667,0,0,416.667,1640.36,8213.23)"><path d="M0.058,-0c-0.005,-0 -0.011,-0.001 -0.017,-0.004c-0.006,-0.002 -0.011,-0.005 -0.015,-0.01c-0.004,-0.004 -0.006,-0.009 -0.006,-0.014c-0,-0.003 0,-0.005 0.001,-0.007l0.209,-0.679c0.003,-0.008 0.008,-0.014 0.015,-0.017c0.007,-0.004 0.015,-0.006 0.024,-0.006c0.009,0 0.018,0.002 0.025,0.006c0.008,0.004 0.013,0.01 0.015,0.017l0.208,0.679c0.001,0.002 0.001,0.004 0.001,0.006c-0,0.005 -0.002,0.01 -0.006,0.015c-0.004,0.004 -0.009,0.007 -0.015,0.01c-0.006,0.003 -0.012,0.004 -0.019,0.004c-0.005,0 -0.01,-0.001 -0.015,-0.004c-0.005,-0.003 -0.008,-0.007 -0.009,-0.013l-0.047,-0.154l-0.276,0l-0.046,0.154c-0.002,0.006 -0.005,0.01 -0.01,0.013c-0.005,0.003 -0.01,0.004 -0.017,0.004Zm0.089,-0.228l0.243,0l-0.121,-0.403l-0.122,0.403Z" style="fill:#231f20;fill-rule:nonzero;"/></g><g transform="matrix(416.667,0,0,416.667,1947.86,8213.23)"><path d="M0.241,0.007c-0.043,0 -0.079,-0.007 -0.11,-0.02c-0.031,-0.012 -0.054,-0.028 -0.071,-0.045c-0.016,-0.017 -0.024,-0.031 -0.024,-0.043c0,-0.005 0.002,-0.011 0.005,-0.017c0.003,-0.006 0.006,-0.011 0.011,-0.014c0.005,-0.004 0.009,-0.006 0.014,-0.006c0.007,0 0.014,0.004 0.021,0.013c0.007,0.008 0.016,0.018 0.028,0.028c0.011,0.011 0.027,0.021 0.046,0.029c0.019,0.009 0.045,0.013 0.076,0.013c0.031,0 0.058,-0.005 0.081,-0.016c0.022,-0.01 0.039,-0.025 0.05,-0.046c0.012,-0.02 0.018,-0.045 0.018,-0.076c-0,-0.032 -0.006,-0.058 -0.018,-0.078c-0.012,-0.019 -0.028,-0.035 -0.047,-0.047c-0.02,-0.013 -0.042,-0.024 -0.065,-0.033c-0.023,-0.009 -0.047,-0.018 -0.071,-0.027c-0.023,-0.009 -0.045,-0.02 -0.065,-0.034c-0.019,-0.013 -0.035,-0.031 -0.048,-0.053c-0.012,-0.023 -0.018,-0.051 -0.018,-0.086c0,-0.037 0.007,-0.067 0.02,-0.09c0.013,-0.023 0.031,-0.042 0.052,-0.055c0.02,-0.013 0.043,-0.023 0.068,-0.028c0.025,-0.006 0.049,-0.009 0.072,-0.009c0.019,0 0.038,0.002 0.057,0.005c0.02,0.003 0.038,0.007 0.055,0.012c0.017,0.005 0.03,0.012 0.04,0.019c0.011,0.007 0.016,0.016 0.016,0.025c0,0.005 -0.001,0.01 -0.004,0.016c-0.002,0.005 -0.005,0.01 -0.009,0.015c-0.004,0.004 -0.009,0.006 -0.016,0.006c-0.006,0 -0.014,-0.003 -0.025,-0.009c-0.011,-0.007 -0.025,-0.013 -0.043,-0.019c-0.019,-0.007 -0.043,-0.01 -0.072,-0.01c-0.024,0 -0.047,0.003 -0.069,0.011c-0.023,0.007 -0.041,0.018 -0.055,0.035c-0.014,0.017 -0.021,0.04 -0.021,0.07c0,0.027 0.006,0.048 0.019,0.064c0.012,0.017 0.028,0.03 0.048,0.04c0.019,0.01 0.041,0.019 0.064,0.027c0.023,0.009 0.047,0.018 0.071,0.028c0.023,0.011 0.045,0.024 0.065,0.039c0.019,0.016 0.035,0.037 0.047,0.062c0.012,0.025 0.018,0.058 0.018,0.098c0,0.047 -0.009,0.086 -0.027,0.116c-0.018,0.031 -0.043,0.053 -0.074,0.068c-0.032,0.015 -0.069,0.022 -0.11,0.022Z" style="fill:#231f20;fill-rule:nonzero;"/></g><g transform="matrix(416.667,0,0,416.667,2235.36,8213.23)"><path d="M0.239,-0c-0.009,-0 -0.016,-0.002 -0.023,-0.007c-0.007,-0.004 -0.01,-0.01 -0.01,-0.019l0,-0.643l-0.168,0c-0.008,0 -0.014,-0.003 -0.019,-0.009c-0.004,-0.007 -0.006,-0.014 -0.006,-0.022c-0,-0.008 0.002,-0.015 0.006,-0.021c0.005,-0.007 0.011,-0.01 0.019,-0.01l0.401,0c0.009,0 0.015,0.003 0.019,0.009c0.004,0.006 0.006,0.013 0.006,0.021c-0,0.008 -0.002,0.015 -0.006,0.022c-0.004,0.007 -0.01,0.01 -0.019,0.01l-0.167,0l0,0.643c0,0.009 -0.004,0.015 -0.011,0.02c-0.007,0.004 -0.014,0.006 -0.022,0.006Z" style="fill:#231f20;fill-rule:nonzero;"/></g><g transform="matrix(416.667,0,0,416.667,2517.44,8213.23)"><path d="M0.458,0.001c-0.007,0 -0.014,-0.004 -0.02,-0.011c-0.006,-0.007 -0.011,-0.015 -0.014,-0.023l-0.155,-0.3l-0.127,-0l0,0.307c0,0.009 -0.004,0.015 -0.011,0.019c-0.007,0.005 -0.014,0.007 -0.022,0.007c-0.009,-0 -0.016,-0.002 -0.023,-0.007c-0.007,-0.004 -0.01,-0.01 -0.01,-0.019l-0,-0.681c-0,-0.007 0.002,-0.012 0.007,-0.016c0.005,-0.005 0.011,-0.007 0.018,-0.008l0.177,0c0.039,0 0.075,0.006 0.108,0.018c0.033,0.012 0.059,0.032 0.079,0.061c0.019,0.028 0.029,0.067 0.029,0.118c-0,0.041 -0.007,0.075 -0.021,0.102c-0.013,0.027 -0.032,0.047 -0.056,0.062c-0.023,0.014 -0.05,0.024 -0.079,0.029l0.154,0.296c0.002,0.002 0.003,0.004 0.004,0.007c-0,0.002 0,0.004 0,0.006c0,0.005 -0.002,0.011 -0.006,0.016c-0.003,0.005 -0.008,0.01 -0.014,0.013c-0.006,0.003 -0.012,0.004 -0.018,0.004Zm-0.316,-0.391l0.136,0c0.045,0 0.081,-0.011 0.109,-0.032c0.027,-0.022 0.041,-0.058 0.041,-0.109c0,-0.05 -0.014,-0.086 -0.041,-0.107c-0.028,-0.021 -0.064,-0.032 -0.109,-0.032l-0.136,0l0,0.28Z" style="fill:#231f20;fill-rule:nonzero;"/></g><g transform="matrix(416.667,0,0,416.667,2820.77,8213.23)"><path d="M0.276,0.006c-0.039,0 -0.074,-0.007 -0.105,-0.021c-0.031,-0.014 -0.056,-0.037 -0.075,-0.068c-0.018,-0.031 -0.027,-0.073 -0.027,-0.125l-0,-0.31c-0,-0.051 0.009,-0.093 0.027,-0.124c0.019,-0.031 0.043,-0.054 0.074,-0.068c0.031,-0.014 0.067,-0.021 0.106,-0.021c0.039,0 0.075,0.007 0.106,0.021c0.031,0.014 0.056,0.037 0.075,0.068c0.019,0.031 0.028,0.073 0.028,0.124l-0,0.31c0,0.052 -0.009,0.094 -0.028,0.125c-0.019,0.031 -0.044,0.054 -0.075,0.068c-0.031,0.014 -0.067,0.021 -0.106,0.021Zm0,-0.061c0.045,-0 0.08,-0.012 0.105,-0.037c0.025,-0.025 0.038,-0.063 0.038,-0.116l0,-0.31c0,-0.052 -0.013,-0.09 -0.038,-0.115c-0.025,-0.025 -0.06,-0.037 -0.105,-0.037c-0.045,-0 -0.079,0.012 -0.104,0.037c-0.025,0.025 -0.037,0.063 -0.037,0.115l0,0.31c0,0.053 0.012,0.091 0.037,0.116c0.025,0.025 0.059,0.037 0.104,0.037Z" style="fill:#231f20;fill-rule:nonzero;"/></g><g transform="matrix(416.667,0,0,416.667,3217.86,8213.23)"><path d="M0.287,0.006c-0.044,0 -0.084,-0.008 -0.119,-0.023c-0.035,-0.014 -0.063,-0.039 -0.084,-0.073c-0.021,-0.033 -0.031,-0.078 -0.031,-0.133l-0,-0.279c-0,-0.055 0.01,-0.1 0.031,-0.134c0.021,-0.033 0.048,-0.058 0.083,-0.073c0.035,-0.015 0.074,-0.022 0.116,-0.022c0.047,0 0.088,0.008 0.124,0.023c0.035,0.015 0.063,0.037 0.084,0.066c0.021,0.029 0.031,0.063 0.031,0.103c0,0.025 -0.005,0.041 -0.016,0.049c-0.011,0.009 -0.027,0.013 -0.049,0.013c-0.017,-0 -0.032,-0.003 -0.045,-0.009c-0.013,-0.006 -0.019,-0.017 -0.02,-0.032c-0.001,-0.016 -0.004,-0.032 -0.01,-0.047c-0.005,-0.015 -0.015,-0.027 -0.03,-0.037c-0.014,-0.01 -0.036,-0.015 -0.065,-0.015c-0.033,0 -0.058,0.009 -0.077,0.028c-0.019,0.019 -0.028,0.048 -0.028,0.087l0,0.279c0,0.039 0.009,0.067 0.028,0.086c0.019,0.019 0.044,0.029 0.077,0.029c0.033,-0 0.058,-0.01 0.077,-0.029c0.019,-0.019 0.028,-0.047 0.028,-0.086l0,-0.059l-0.081,-0c-0.013,-0 -0.023,-0.005 -0.029,-0.016c-0.007,-0.011 -0.011,-0.022 -0.011,-0.035c0,-0.013 0.004,-0.024 0.011,-0.035c0.007,-0.011 0.016,-0.016 0.029,-0.016l0.17,0c0.013,-0 0.024,0.004 0.031,0.013c0.007,0.008 0.01,0.018 0.01,0.029l0,0.119c0,0.055 -0.01,0.1 -0.031,0.133c-0.021,0.034 -0.049,0.058 -0.084,0.073c-0.036,0.015 -0.076,0.023 -0.12,0.023Z" style="fill:#231f20;fill-rule:nonzero;"/></g><g transform="matrix(416.667,0,0,416.667,3536.19,8213.23)"><path d="M0.091,-0c-0.012,-0 -0.024,-0.002 -0.037,-0.007c-0.013,-0.005 -0.023,-0.011 -0.032,-0.019c-0.009,-0.008 -0.013,-0.017 -0.013,-0.028c0,-0.002 0,-0.005 0.001,-0.01l0.193,-0.629c0.005,-0.015 0.015,-0.026 0.032,-0.033c0.016,-0.007 0.033,-0.011 0.052,-0.011c0.019,0 0.037,0.004 0.053,0.011c0.016,0.007 0.026,0.018 0.031,0.033l0.193,0.629c0.001,0.005 0.002,0.008 0.002,0.01c0,0.01 -0.005,0.019 -0.014,0.028c-0.009,0.008 -0.019,0.014 -0.032,0.019c-0.013,0.005 -0.025,0.007 -0.037,0.007c-0.011,0 -0.02,-0.002 -0.028,-0.005c-0.007,-0.004 -0.012,-0.011 -0.015,-0.021l-0.038,-0.133l-0.23,0l-0.037,0.133c-0.003,0.01 -0.008,0.017 -0.016,0.021c-0.008,0.003 -0.017,0.005 -0.028,0.005Zm0.109,-0.261l0.174,0l-0.087,-0.307l-0.087,0.307Z" style="fill:#231f20;fill-rule:nonzero;"/></g><g transform="matrix(416.667,0,0,416.667,3833.27,8213.23)"><path d="M0.262,-0c-0.017,-0 -0.032,-0.004 -0.045,-0.011c-0.013,-0.007 -0.02,-0.017 -0.02,-0.03l-0,-0.573l-0.147,0c-0.013,0 -0.023,-0.006 -0.03,-0.018c-0.007,-0.012 -0.011,-0.026 -0.011,-0.041c-0,-0.014 0.003,-0.027 0.01,-0.039c0.007,-0.013 0.017,-0.019 0.031,-0.019l0.423,0c0.015,0 0.025,0.006 0.032,0.019c0.006,0.012 0.009,0.025 0.009,0.039c0,0.015 -0.003,0.029 -0.01,0.041c-0.008,0.012 -0.018,0.018 -0.031,0.018l-0.146,0l0,0.573c0,0.013 -0.007,0.024 -0.02,0.031c-0.014,0.007 -0.029,0.01 -0.045,0.01Z" style="fill:#231f20;fill-rule:nonzero;"/></g><g transform="matrix(416.667,0,0,416.667,4128.69,8213.23)"><path d="M0.287,0.006c-0.044,0 -0.084,-0.008 -0.119,-0.023c-0.035,-0.014 -0.063,-0.039 -0.084,-0.073c-0.021,-0.033 -0.031,-0.078 -0.031,-0.133l-0,-0.279c-0,-0.055 0.01,-0.1 0.031,-0.134c0.021,-0.033 0.048,-0.058 0.083,-0.073c0.035,-0.015 0.075,-0.022 0.12,-0.022c0.044,0 0.084,0.007 0.119,0.022c0.036,0.015 0.064,0.04 0.085,0.073c0.021,0.034 0.031,0.079 0.031,0.134l0,0.279c0,0.055 -0.01,0.1 -0.031,0.133c-0.021,0.034 -0.049,0.058 -0.084,0.073c-0.036,0.015 -0.076,0.023 -0.12,0.023Zm0,-0.114c0.033,-0 0.058,-0.009 0.077,-0.028c0.019,-0.019 0.028,-0.048 0.028,-0.087l0,-0.279c0,-0.039 -0.009,-0.068 -0.028,-0.087c-0.019,-0.019 -0.044,-0.028 -0.077,-0.028c-0.033,0 -0.058,0.009 -0.077,0.028c-0.019,0.019 -0.028,0.048 -0.028,0.087l0,0.279c0,0.039 0.009,0.068 0.028,0.087c0.019,0.019 0.044,0.028 0.077,0.028Z" style="fill:#231f20;fill-rule:nonzero;"/></g><g transform="matrix(416.667,0,0,416.667,4451.19,8213.23)"><path d="M0.461,0.005c-0.009,0 -0.017,-0.003 -0.026,-0.008c-0.008,-0.005 -0.014,-0.013 -0.019,-0.023l-0.142,-0.276l-0.084,0l0,0.261c0,0.013 -0.007,0.024 -0.02,0.031c-0.013,0.007 -0.028,0.01 -0.045,0.01c-0.016,0 -0.031,-0.003 -0.044,-0.01c-0.014,-0.007 -0.021,-0.018 -0.021,-0.031l0,-0.65c0,-0.011 0.004,-0.02 0.012,-0.028c0.007,-0.008 0.017,-0.012 0.03,-0.012l0.198,0c0.044,0 0.084,0.006 0.12,0.019c0.035,0.013 0.064,0.034 0.085,0.065c0.021,0.03 0.032,0.072 0.032,0.125c0,0.039 -0.006,0.071 -0.017,0.099c-0.011,0.027 -0.027,0.048 -0.046,0.065c-0.02,0.016 -0.043,0.028 -0.068,0.036l0.132,0.243c0.001,0.003 0.002,0.006 0.003,0.009c0.001,0.003 0.001,0.005 0.001,0.007c0,0.011 -0.004,0.021 -0.012,0.032c-0.008,0.011 -0.018,0.019 -0.03,0.026c-0.013,0.007 -0.026,0.01 -0.039,0.01Zm-0.271,-0.409l0.11,0c0.033,0 0.059,-0.008 0.078,-0.024c0.019,-0.016 0.029,-0.043 0.029,-0.082c0,-0.04 -0.01,-0.068 -0.029,-0.083c-0.019,-0.016 -0.045,-0.024 -0.078,-0.024l-0.11,0l0,0.213Z" style="fill:#231f20;fill-rule:nonzero;"/></g></g><path d="M2283.82,834.468c0,-12.196 -9.901,-22.097 -22.097,-22.097l-2239.45,-0c-12.195,-0 -22.097,9.901 -22.097,22.097c0,12.195 9.902,22.097 22.097,22.097l2239.45,-0c12.196,-0 22.097,-9.902 22.097,-22.097Z" style="fill:#54c9ea;"/><path d="M3713.91,755.841c-0,-12.195 -9.901,-22.097 -22.097,-22.097l-1956.12,0c-12.196,0 -22.097,9.902 -22.097,22.097c-0,12.196 9.901,22.097 22.097,22.097l1956.12,0c12.196,0 22.097,-9.901 22.097,-22.097Z" style="fill:#54c9ea;"/><path d="M2123.88,213.144c140.616,110.611 317.933,176.62 510.546,176.62c188.05,-0 361.521,-62.919 500.491,-168.834c2.694,-2.053 5.566,-3.942 8.595,-5.676c27.711,-20.4 60.45,-32.194 95.51,-32.194c99.641,-0 180.536,95.262 180.536,212.598c0,48.448 -13.791,93.131 -36.998,128.901c-32.652,66.723 -88.599,119.883 -157.46,148.669l-1878.59,0l-183.383,-0.425c-37.484,0 -12.417,-52.951 -1.772,-78.699c105.057,-254.108 333.197,-444.602 609.932,-496.993c32.306,-57.91 94.187,-97.111 165.152,-97.111c104.299,-0 188.976,84.677 188.976,188.976c0,8.188 -0.522,16.254 -1.534,24.168Zm149.447,354.998c-28.761,-0.364 -54.541,-1.982 -78.211,-4.729c13.264,29.496 29.464,59.705 40.18,59.705c10.144,0 25.201,-27.067 38.031,-54.976Zm777.727,-58.103c-38.572,-1.314 -80.357,-1.841 -124.367,-1.077c4.477,12.141 42.69,114.156 62.382,114.156c19.2,0 56.006,-96.977 61.985,-113.079Zm-898.326,46.878c-35.727,-6.891 -67.083,-16.724 -98.14,-28.918c13.101,33.074 39.722,95.119 55.079,95.119c11.506,0 29.334,-34.824 43.061,-66.201Zm645.231,-41.988c-37.841,2.904 -76.512,6.937 -115.507,12.36c12.997,32.888 39.892,95.829 55.36,95.829c17.765,0 50.602,-83.024 60.147,-108.189Zm127.859,-5.951c-39.355,0.698 -80.482,2.431 -122.673,5.56c9.348,24.683 42.437,108.58 60.296,108.58c19.684,0 57.873,-101.93 62.377,-114.14Zm-259.177,20.584c-3.628,0.539 -7.258,1.09 -10.89,1.654c-32.49,5.041 -63.051,9.526 -91.854,13.48c14.109,33.741 35.253,78.422 48.286,78.422c15.118,0 41.153,-60.13 54.458,-93.556Zm627.643,1.256c-10.953,-1.675 -51.801,-7.617 -112.978,-12.934c10.777,28.114 41.9,105.234 59.021,105.234c14.931,0 40.509,-58.647 53.957,-92.3Zm-120.325,-13.561c-34.814,-2.917 -75.766,-5.582 -121.224,-7.161c6.045,16.275 42.786,113.022 61.963,113.022c17.251,0 48.714,-78.286 59.261,-105.861Zm-11.394,-210.149l140.577,-0c-0,-38.793 -31.495,-70.288 -70.289,-70.288c-38.793,-0 -70.288,31.495 -70.288,70.288Zm-629.457,241.7c-31.712,4.11 -61.177,7.528 -88.656,10.291c13.59,30.787 30.863,64.019 42.102,64.019c12.509,0 32.492,-41.166 46.554,-74.31Zm-131.833,14.228c-28.388,2.302 -54.473,3.812 -78.622,4.58c12.882,28.094 28.065,55.502 38.272,55.502c10.762,0 27.054,-30.467 40.35,-60.082Zm-325.791,-300.106c7.016,-13.154 12.22,-27.418 15.278,-42.458l-308.649,0c14.608,71.846 78.194,125.985 154.325,125.985c32.233,-0 62.217,-9.705 87.187,-26.35c-0.478,-0.009 -0.957,-0.021 -1.436,-0.037c-47.751,-1.545 -85.497,-34.357 -84.24,-73.227c21.315,10.417 52.382,19.32 85.949,20.406c18.184,0.589 35.785,-1.16 51.586,-4.319Z"/><path d="M4554.16,677.215c0,-12.196 -9.901,-22.097 -22.096,-22.097l-3937.08,0c-12.195,0 -22.096,9.901 -22.096,22.097c-0,12.196 9.901,22.097 22.096,22.097l3937.08,-0c12.195,-0 22.096,-9.901 22.096,-22.097Z" style="fill:#54c9ea;"/></g></g></svg>