<svg xmlns="http://www.w3.org/2000/svg" xmlns:xlink="http://www.w3.org/1999/xlink" width="100%"
    height="100%" viewBox="0 0 6117 1769">
    <defs>
        <clipPath id="clip-All_Paths">
            <rect width="6117" height="1769"></rect>
        </clipPath>
    </defs>
    <g id="All_Paths" data-name="All Paths" clip-path="url(#clip-All_Paths)">
        <g id="Component_1_5" data-name="Component 1 – 5" transform="translate(417.164 94.896)">
            <path id="Union_4" data-name="Union 4"
                d="M77.184,530.756S65.1,525.416,59,509.685c.085.67-56.9-134.089-56.9-134.089s-14.141-40.345,30.932-55.1c-.69-.492,143.031-18.777,143.031-18.777s18.884-1.933,28.837,3.417c1.093.48,237.186,136.982,237.186,136.982l.233,299.82ZM443.74,167.515s.063-25.915,19.936-38.284S674.609,6.875,674.609,6.875s13.9-10.117,39.454-5.806c.3.246,135.4,16.427,135.4,16.427s43.473,8.1,35.033,52.45c-.188.622-56.3,133.826-56.3,133.826s-3.834,18.145-27.77,30.569c.251-.123-356.687,205.731-356.687,205.731Z"
                transform="translate(17.635 0)" fill="#3c551a"></path>
            <path id="Path_15" data-name="Path 15"
                d="M399.964,36.043c27.164-48.058,96.37-48.058,123.534,0L914.169,727.209c26.743,47.314-7.429,105.906-61.767,105.906H71.06c-54.338,0-88.51-58.593-61.767-105.906Z"
                transform="translate(923.462 1577.208) rotate(180)" fill="#d0805b"></path>
        </g>
        <path id="Path_28" data-name="Path 28"
            d="M-14000.75-13041.088q-79.008-56.087-89.7-152.239h120.672q13.875,45.943,59.281,74.25,45.375,28.314,108.375,28.312,73.688,0,119.063-44.87,45.4-44.868,45.391-130.338v-98.285q-30.961,41.663-83.828,69.977-52.852,28.31-120.141,28.309-76.875,0-140.422-38.991t-100.375-108.972q-36.844-69.976-36.844-158.648t36.844-157.043q36.844-68.376,100.375-106.3t140.422-37.926q68.344,0,121.2,27.242,52.875,27.246,82.766,67.841v-85.465h122.813v598.264q0,81.2-34.187,144.76-34.148,63.568-98.766,99.889t-154.312,36.325Q-13921.727-12985-14000.75-13041.088Zm97.172-704.033q-40.57,22.969-65.656,67.307-25.1,44.333-25.109,105.229t25.109,106.834q25.078,45.939,66.2,69.978,41.109,24.031,87.031,24.036a171.816,171.816,0,0,0,87.563-23.5q40.57-23.5,65.672-68.907t25.094-106.3q0-60.894-25.094-105.766t-65.672-68.373a171.8,171.8,0,0,0-87.562-23.5A174.86,174.86,0,0,0-13903.578-13745.121Zm2123.141,454.063q-69.211-33.173-111.844-99.27t-48.953-156.681q-6.328-90.589,25.625-161.9t95.906-113.271q63.984-41.958,150.266-48,83.086-5.812,150.594,25.876,67.523,31.69,108.313,94.7,40.8,63.006,46.766,148.266a378.8,378.8,0,0,1-.094,59.979l-448.469,31.37q10.242,69.971,60.094,109.321t118.031,34.577q97.992-6.851,132.734-91.748l131.031-9.165q-20.953,82.857-87.125,139.43t-169.5,63.795q-12.68.889-25.031.889Q-11721.633-13262.88-11780.437-13291.059Zm112.813-476.428q-62.836,4.4-104.8,47.491-41.93,43.1-45.7,111.9l324.906-22.727q-5.742-67.068-55.453-104.287-43.969-32.927-103.25-32.932Q-11659.633-13768.045-11667.625-13767.486Zm-2896.734,476.428q-69.211-33.173-111.859-99.27-42.609-66.1-48.937-156.681-6.352-90.589,25.609-161.9,31.945-71.313,95.922-113.271t150.266-48q83.086-5.812,150.594,25.876,67.523,31.69,108.313,94.7,40.8,63.006,46.766,148.266a382.566,382.566,0,0,1-.094,59.979l-448.469,31.37q10.219,69.971,60.094,109.321,49.828,39.349,118.016,34.577,98.016-6.851,132.75-91.748l131.031-9.165q-20.977,82.857-87.125,139.43-66.164,56.566-169.484,63.795-12.7.889-25.031.889Q-14505.562-13262.88-14564.359-13291.059Zm112.813-476.428q-62.836,4.4-104.8,47.491t-45.7,111.9l324.906-22.727q-5.742-67.068-55.453-104.287-43.969-32.927-103.25-32.932C-14441-13768.045-14446.219-13767.859-14451.547-13767.486Zm2093.172,495.1v-99.354l268.047-389.942h-268.047v-99.355h407.922v99.355l-266.953,389.942h266.953v99.354Zm-248.812,0v-588.652h121.734v588.652Zm-337.437,0-118.531-434.813-118.547,434.813h-128.125l-183.687-588.652h123.875l122.8,473.274,124.953-473.274h127.063l119.609,471.138,121.75-471.138h119.578l-182.594,588.652Zm-2127.187,0L-15295-13861.035h130.281l166.594,479.684,166.578-479.684h129.219l-224.25,588.652Zm3758.875-2.137v-588.652h121.734v85.467q26.7-44.867,71.031-69.974,44.3-25.109,105.172-25.111v126.066h-30.969q-71.531,0-108.391,36.325-36.844,36.322-36.844,126.063v309.816Zm-1287.844-686.937q-22.43-22.44-22.422-55.554t22.422-55.556q22.453-22.433,55.531-22.434,32.039,0,54.469,22.434,22.406,22.436,22.422,55.556,0,33.119-22.422,55.554-22.453,22.434-54.469,22.432Q-12578.344-13939.025-12600.781-13961.457Z"
            transform="translate(16865 14525.45)" fill="#232323" stroke="rgba(0,0,0,0)"
            stroke-width="1"></path>
    </g>
</svg>