<svg width="616" height="104" viewBox="0 0 616 104" fill="none" xmlns="http://www.w3.org/2000/svg">
<path d="M413.029 102.656L411.299 94.9461C408.486 97.4146 405.561 99.3082 402.541 100.638C398.855 102.256 395.321 103.067 391.945 103.067C387.329 103.067 383.435 101.551 380.268 98.5192C377.1 95.4871 375.511 90.8714 375.511 84.672V57.6592L369.283 55.45L369.385 66.9979H359.257L358.04 58.623C357.668 58.5554 357.285 58.5215 356.879 58.5215C355.019 58.5215 353.176 59.1077 351.35 60.28C350.161 61.0408 349.113 61.9086 348.2 62.878V90.7642L356.157 92.8383V101.726H299.5V66.4794C299.5 63.5882 298.88 61.4691 297.639 60.1221C296.399 58.7808 294.78 58.1101 292.782 58.1101C291.197 58.1101 289.491 58.5215 287.665 59.35C286.225 60.0037 284.796 60.8885 283.376 62.0157V90.9108L288.751 92.8383V101.726H198.524V66.4794C198.524 63.5882 197.972 61.4691 196.87 60.1221C195.768 58.7808 194.321 58.1101 192.529 58.1101C191.082 58.1101 189.446 58.5384 187.62 59.4007C186.234 60.0545 184.84 60.9563 183.434 62.106V90.6516L189.739 92.8383V101.726H165.967V66.4794C165.967 63.5882 165.399 61.4691 164.262 60.1221C163.125 58.7808 161.661 58.1101 159.87 58.1101C158.423 58.1101 156.821 58.5215 155.064 59.35C153.68 59.9981 152.284 60.8887 150.878 62.0102V90.8432L157.183 92.8383V101.726L103.645 102.656L101.757 94.112C99.4654 96.9412 96.9078 99.0998 94.0854 100.588C90.9507 102.239 87.6261 103.067 84.1121 103.067C81.5563 103.067 79.2642 102.633 77.2358 101.765L39.2744 101.726V92.8383L44.5974 90.6009L32.2673 70.819H24.9086V90.2853L31.3165 92.8383V101.726H0.000305176V92.8383L6.9251 90.4713V40.1993L0.000305176 38.0578V29.17L31.3165 28.6514V37.3364L24.9086 39.9909V58.003H33.1499L43.8507 39.647L38.1376 38.0578V29.17L67.3866 28.6514V37.5392L61.031 39.9344L46.3975 63.5375L64.9502 90.9277L69.0165 92.3818C68.4693 90.5389 68.1959 88.4818 68.1959 86.2218C68.1959 82.3613 69.0396 79.2446 70.7281 76.8663C72.416 74.4879 74.9138 72.7521 78.221 71.6474C81.5281 70.5428 85.6626 69.9962 90.6233 69.9962H99.8215V65.758C99.8215 62.8612 99.1498 60.7758 97.8062 59.5021C96.4626 58.2284 94.4128 57.5916 91.6569 57.5916C90.4164 57.5916 89.0559 57.6931 87.5742 57.9016C86.4792 58.0538 85.3368 58.2849 84.1477 58.5892L82.8717 65.138H72.123L71.2962 48.9123C76.3262 47.5315 80.9251 46.5171 85.0939 45.8634C89.2622 45.204 93.0692 44.8771 96.5144 44.8771C103.405 44.8771 108.607 46.3087 112.121 49.1717C115.635 52.0291 117.392 56.4927 117.392 62.5512V90.4318L124.823 92.8383L133.308 90.5501V57.6029L127.003 55.4218V46.6356L146.951 45.7056L148.603 53.1055C151.303 50.6426 154.18 48.732 157.234 47.3625C160.92 45.7055 164.452 44.8771 167.828 44.8771C170.929 44.8771 173.719 45.621 176.199 47.1032C178.403 48.4164 180.144 50.3721 181.423 52.9646C181.584 53.2915 180.776 53.5451 181.423 52.9646C184.101 50.5581 186.925 48.6925 189.894 47.3625C193.58 45.7055 197.077 44.8771 200.384 44.8771C204.794 44.8771 208.515 46.3255 211.546 49.2223C214.578 52.1135 216.094 56.5603 216.094 62.5512V90.6854L223.948 92.8271L231.907 90.5727V57.5522L225.602 55.4218V46.6356L249.477 45.8126V90.5727L257.364 92.8045L265.807 90.5896V57.6029L259.502 55.4218V46.6356L279.449 45.7056L281.107 53.1281C283.924 50.5976 286.886 48.6588 289.991 47.3062C293.711 45.6887 297.26 44.8771 300.636 44.8771C305.254 44.8771 309.149 46.3594 312.316 49.3239C315.483 52.2883 317.033 56.8025 316.966 62.8611V90.6516L323.796 92.8214L330.627 90.7249V57.6536L324.326 55.4218V46.6356L344.271 45.7056L345.951 53.1505C348.538 50.7158 351.079 48.7997 353.571 47.4132C356.603 45.7225 359.809 44.8771 363.185 44.8771H363.287C365.445 44.8997 367.187 45.4971 369.21 46.6356L393.084 45.8126V81.8821C393.084 84.5648 393.687 86.5656 394.893 87.8731C396.099 89.1863 397.699 89.84 399.7 89.84C401.21 89.84 402.884 89.4398 404.71 88.6508C406.198 88.0027 407.697 87.0728 409.208 85.8554V57.693L402.901 55.4218V46.6356L426.775 45.7056V90.5896L434.101 92.8383L441.62 90.6516V57.6029L435.319 55.4218V46.6356L455.264 45.7056L456.921 53.1281C459.739 50.5976 462.703 48.6588 465.803 47.3062C469.528 45.6887 473.073 44.8771 476.449 44.8771C481.065 44.8771 484.959 46.3594 488.132 49.3239C491.3 52.2883 492.85 56.8025 492.782 62.8611L492.54 101.771L475.316 101.726V66.4794C475.316 63.5882 474.696 61.4691 473.451 60.1221C472.217 58.7808 470.594 58.1101 468.598 58.1101C467.009 58.1101 465.307 58.5215 463.481 59.35C462.038 60.0037 460.612 60.8885 459.192 62.0157V90.9108L464.563 92.8383V101.726L413.029 102.656ZM99.8215 78.4669H93.5173C90.6233 78.4669 88.6079 78.9177 87.4711 79.8138C86.3344 80.7099 85.7657 82.1922 85.7657 84.2549C85.7657 86.4642 86.2825 88.0986 87.3161 89.1637C88.3497 90.2346 89.6584 90.7699 91.2432 90.7699C92.6905 90.7699 94.2234 90.3529 95.8426 89.53C97.2324 88.8199 98.5591 87.8562 99.8215 86.6389V78.4669ZM358.04 58.623C358.04 58.623 358.141 58.6398 358.198 58.6511C358.248 58.6568 358.26 58.6625 358.068 58.6287L358.04 58.623Z" fill="white"/>
<path fill-rule="evenodd" clip-rule="evenodd" d="M582.396 102.218L541.666 102.655L539.89 95.6318C539.89 95.6318 535.224 99.365 532.259 100.846C529.3 102.328 526.127 103.068 522.752 103.068C518.756 103.068 515.222 102.017 512.156 99.9162C509.09 97.8146 506.678 94.6968 504.925 90.5623C503.167 86.4284 502.288 81.364 502.288 75.3697C502.288 64.8966 504.959 57.1969 510.296 52.27C515.639 47.3437 523.202 44.8803 532.986 44.8803C534.226 44.8803 535.517 44.9152 536.858 44.984C537.185 45.0009 537.512 45.0234 537.844 45.0522V33.2901L531.019 30.7213V21.9361L555.31 20.9025V90.4721L568.233 92.3331C567.872 91.7492 567.528 91.1417 567.202 90.511C565.066 86.3422 564 81.1921 564 75.0598C564 68.7205 565.133 63.3118 567.41 58.833C569.681 54.3547 572.922 50.9095 577.126 48.4979C581.331 46.0864 586.324 44.8803 592.112 44.8803C597.692 44.8803 602.24 45.9483 605.757 48.0843C609.268 50.2203 611.838 53.1661 613.455 56.9213C615.073 60.6765 615.884 64.8966 615.884 69.5817C615.884 70.8909 615.833 72.2345 615.726 73.6125C615.625 74.9904 615.399 76.4033 615.056 77.8501H582.334C582.503 79.0753 582.728 80.2464 583.016 81.364C583.703 84.0512 584.943 86.2047 586.735 87.8239C588.528 89.443 591.007 90.2523 594.18 90.2523C596.316 90.2523 598.672 89.8561 601.259 89.0637C603.84 88.2713 606.546 87.1177 609.369 85.6016L615.157 94.6968C611.026 97.5215 606.822 99.6231 602.55 101.001C598.278 102.379 594.073 103.068 589.942 103.068C587.26 103.068 584.74 102.785 582.396 102.218ZM529.678 90.356C531.194 90.356 532.795 89.9254 534.485 89.0637C535.568 88.5108 536.683 87.794 537.844 86.9142C537.906 86.8669 538.515 57.9611 537.844 57.8185C535.844 57.3924 534.018 57.1794 532.366 57.1794C528.089 57.1794 525.062 58.6611 523.27 61.6238C521.478 64.5866 520.582 68.6174 520.582 73.7162C520.582 77.092 520.926 80.0204 521.613 82.5008C522.306 84.9817 523.338 86.9108 524.713 88.2888C526.094 89.6668 527.745 90.356 529.678 90.356ZM582.204 68.2381H597.804C597.776 66.2954 597.601 64.59 597.28 63.1224C596.863 61.2276 596.125 59.7804 595.06 58.7817C593.989 57.7825 592.524 57.2831 590.664 57.2831C588.392 57.2831 586.634 57.9893 585.394 59.4016C584.154 60.814 583.275 62.6575 582.757 64.931C582.52 65.9888 582.334 67.0912 582.204 68.2381Z" fill="white"/>
<path fill-rule="evenodd" clip-rule="evenodd" d="M513.876 101.771L493.558 101.72L493.496 90.702L499.623 92.9676L504.143 91.3388C505.862 95.0866 507.84 97.6228 510.511 99.849C511.678 100.824 512.625 101.14 513.876 101.771Z" fill="#FF6900"/>
<path d="M270.659 35.2761V32.5153L274.755 31.4467L274.132 32.2482V6.91181L274.933 8.06958L270.659 7.00095V4.24014L279.52 4.0175H292.834L292.878 11.7654H289.583L288.782 7.35709L289.806 7.98054H278.718L279.609 7.08999V18.4446L278.718 17.6431H289.45V21.606H278.718L279.609 20.7154V32.2482L278.896 31.4467L283.928 32.5153V35.2761H270.659Z" fill="#959393"/>
<path d="M294.748 35.276V32.5151L298.444 31.5356L297.91 32.3817V14.5705L298.533 15.5055L294.748 14.4814V11.7207L302.051 11.3644L302.763 15.6391L302.051 15.4611C303.387 14.0629 304.7 12.9853 305.992 12.2283C307.283 11.4714 308.686 11.0973 310.199 11.0973C311.152 11.0973 312.141 11.2398 313.183 11.5426L312.827 19.2014H309.71L309.086 14.4369L309.576 15.5055C309.398 15.4432 309.202 15.3986 308.997 15.3719C308.792 15.3363 308.579 15.3275 308.374 15.3275C307.364 15.3275 306.377 15.6303 305.413 16.2359C304.447 16.8414 303.579 17.6429 302.808 18.6225L303.253 17.153V32.3817L302.585 31.5356L307.127 32.5151V35.276H294.748Z" fill="#959393"/>
<path d="M325.25 35.7657C323.175 35.7657 321.331 35.3115 319.728 34.4031C318.125 33.4948 316.879 32.159 315.988 30.3779C315.098 28.5968 314.652 26.4148 314.652 23.8322C314.652 21.1873 315.124 18.9164 316.05 17.0195C316.994 15.1138 318.312 13.6532 320.022 12.6291C321.723 11.6049 323.754 11.0973 326.096 11.0973C328.322 11.0973 330.139 11.5426 331.546 12.451C332.962 13.3594 334.004 14.5972 334.69 16.1735C335.376 17.7408 335.714 19.5219 335.714 21.5168C335.714 21.9621 335.696 22.4073 335.669 22.8526C335.643 23.2979 335.58 23.7877 335.491 24.3221H318.927V20.9379H330.816L330.192 21.3387C330.219 20.1454 330.094 19.0767 329.81 18.1327C329.533 17.1798 329.053 16.4228 328.367 15.8618C327.681 15.2918 326.782 15.0158 325.651 15.0158C324.377 15.0158 323.326 15.372 322.507 16.0844C321.697 16.7969 321.1 17.7587 320.726 18.9787C320.361 20.1899 320.174 21.5703 320.174 23.1198C320.174 24.8119 320.396 26.2991 320.842 27.5904C321.287 28.8818 321.982 29.8969 322.934 30.645C323.887 31.3842 325.09 31.7582 326.541 31.7582C327.583 31.7582 328.705 31.5622 329.925 31.1793C331.145 30.7875 332.401 30.1997 333.71 29.3982L335.536 32.2925C333.844 33.4502 332.125 34.3141 330.371 34.893C328.616 35.4718 326.915 35.7657 325.25 35.7657Z" fill="#959393"/>
<path d="M348.004 35.7657C346.018 35.7657 344.361 35.1334 343.043 33.8688C341.716 32.6042 341.057 30.6895 341.057 28.1069V14.704L341.592 15.5055L337.94 14.4813V11.7206L346.401 11.409V27.2163C346.401 28.7303 346.748 29.8435 347.452 30.5738C348.146 31.304 349.072 31.6691 350.23 31.6691C351.121 31.6691 352.1 31.4286 353.169 30.9566C354.238 30.4757 355.306 29.7188 356.375 28.6858L355.974 29.71V14.5705L356.509 15.5055L352.857 14.4813V11.7206L361.317 11.409V32.3371L360.65 31.4465L364.479 32.4707V35.2314L357.176 35.543L356.419 31.1793L357.176 31.4465C355.689 32.8981 354.157 33.9846 352.572 34.697C350.978 35.4095 349.455 35.7657 348.004 35.7657Z" fill="#959393"/>
<path d="M366.75 35.276V32.5151L370.579 31.4911L369.911 32.2925V14.615L370.579 15.5055L366.75 14.4814V11.7207L374.052 11.3644L374.765 15.6837L374.052 15.4165C375.504 13.9293 377.036 12.8338 378.639 12.1392C380.242 11.4446 381.774 11.0973 383.225 11.0973C385.211 11.0973 386.868 11.7207 388.194 12.9675C389.512 14.2142 390.154 16.0933 390.127 18.6225V32.2925L389.593 31.4911L393.288 32.5151V35.276H381.889V32.5151L385.452 31.5801L384.784 32.4261V19.7802C384.784 18.204 384.436 17.0462 383.742 16.3071C383.038 15.559 382.112 15.1939 380.954 15.1939C380.064 15.1939 379.084 15.4343 378.015 15.9241C376.947 16.4139 375.896 17.162 374.854 18.1772L375.255 17.3312V32.4261L374.72 31.5801L378.149 32.5151V35.276H366.75Z" fill="#959393"/>
<path d="M403.094 35.7657C401.402 35.7657 399.897 35.3115 398.579 34.4031C397.252 33.4947 396.21 32.159 395.435 30.3779C394.66 28.5967 394.277 26.4416 394.277 23.9213C394.277 19.611 395.373 16.396 397.572 14.2765C399.772 12.157 402.827 11.0973 406.745 11.0973C407.431 11.0973 408.125 11.1329 408.838 11.2041C409.55 11.2754 410.289 11.4089 411.064 11.587L410.085 12.2105V4.32907L410.485 4.90785L406.7 3.79465V1.07852L415.428 0.722275V32.248L414.715 31.4465L418.545 32.4706V35.2314L411.242 35.543L410.53 31.7137L411.109 31.9363C409.8 33.2098 408.49 34.1627 407.164 34.8039C405.846 35.4451 404.492 35.7657 403.094 35.7657ZM405.097 31.8027C405.961 31.8027 406.861 31.5622 407.814 31.0902C408.767 30.6093 409.728 29.9147 410.708 28.9975L410.085 30.645V14.3923L410.752 15.6391C409.212 15.1582 407.814 14.9266 406.567 14.9266C404.278 14.9266 402.586 15.6836 401.491 17.1976C400.395 18.7115 399.843 20.7865 399.843 23.4315C399.843 25.1502 400.066 26.6375 400.511 27.9021C400.956 29.1667 401.571 30.1285 402.363 30.7964C403.147 31.4643 404.055 31.8027 405.097 31.8027Z" fill="#959393"/>
<path d="M430.995 35.7657C428.92 35.7657 427.076 35.3115 425.473 34.4031C423.87 33.4948 422.624 32.159 421.733 30.3779C420.843 28.5968 420.397 26.4148 420.397 23.8322C420.397 21.1873 420.86 18.9164 421.804 17.0195C422.739 15.1138 424.057 13.6532 425.758 12.6291C427.468 11.6049 429.499 11.0973 431.841 11.0973C434.067 11.0973 435.884 11.5426 437.291 12.451C438.707 13.3594 439.749 14.5972 440.435 16.1735C441.121 17.7408 441.459 19.5219 441.459 21.5168C441.459 21.9621 441.441 22.4073 441.414 22.8526C441.388 23.2979 441.325 23.7877 441.236 24.3221H424.672V20.9379H436.561L435.937 21.3387C435.964 20.1454 435.839 19.0767 435.554 18.1327C435.278 17.1798 434.798 16.4228 434.112 15.8618C433.426 15.2918 432.527 15.0158 431.396 15.0158C430.122 15.0158 429.071 15.372 428.261 16.0844C427.442 16.7969 426.845 17.7587 426.48 18.9787C426.106 20.1899 425.919 21.5703 425.919 23.1198C425.919 24.8119 426.141 26.2991 426.587 27.5904C427.032 28.8818 427.727 29.8969 428.679 30.645C429.632 31.3842 430.835 31.7582 432.286 31.7582C433.328 31.7582 434.45 31.5622 435.67 31.1793C436.89 30.7875 438.146 30.1997 439.455 29.3982L441.281 32.2925C439.589 33.4502 437.87 34.3141 436.116 34.893C434.361 35.4718 432.66 35.7657 430.995 35.7657Z" fill="#959393"/>
<path d="M234.118 13.633V2.81232H247.113V13.633H257.612V25.9772H247.354L247.113 36.3235H234.118L234.142 25.9772H223.619V13.633H234.118Z" fill="#FF6900"/>
</svg>
